<?xml version="1.0" encoding="UTF-8"?>
<svg id="Capa_1" xmlns="http://www.w3.org/2000/svg" version="1.1" viewBox="0 0 851.06 247.32">
  <!-- Generator: Adobe Illustrator 30.0.0, SVG Export Plug-In . SVG Version: 2.1.1 Build 123)  -->
  <defs>
    <style>
      .st0 {
        fill: #009f4b;
      }

      .st1 {
        fill: #e43528;
      }

      .st2 {
        fill: #054780;
      }
    </style>
  </defs>
  <g>
    <g>
      <rect class="st0" x="152.58" y="150.63" width="10.54" height="30"/>
      <rect class="st0" x="96.07" y="151.88" width="10.54" height="30"/>
    </g>
    <path class="st2" d="M128.07,0C59.78,0,4.42,55.37,4.42,123.67s55.37,123.65,123.65,123.65,123.66-55.36,123.66-123.65S196.37,0,128.07,0ZM129.32,217.11c-52.29,0-94.68-42.4-94.68-94.68S77.03,27.75,129.32,27.75s94.68,42.39,94.68,94.68-42.4,94.68-94.68,94.68Z"/>
    <polygon class="st0" points="100.06 66.55 144.41 164.9 56.68 164.9 100.06 66.55"/>
    <polygon class="st0" points="155.13 66.55 199.47 164.9 111.75 164.9 155.13 66.55"/>
    <polygon class="st1" points="0 217.03 104.9 110.85 115.62 132.78 177.97 76.63 188.41 97.68 262.51 30 280.51 55.56 170.95 127.54 163.93 113.05 100.03 168.97 95.88 154.51 0 217.03"/>
  </g>
  <g>
    <g>
      <path class="st2" d="M291.38,60.7h13.49v63.01h-13.49v-63.01Z"/>
      <path class="st2" d="M340.48,123.72l-.8-4.35h-.27c-2.83,3.46-7.28,5.33-12.42,5.33-8.79,0-14.03-6.4-14.03-13.32,0-11.27,10.12-16.68,25.47-16.6v-.62c0-2.31-1.24-5.59-7.9-5.59-4.44,0-9.14,1.51-11.98,3.28l-2.49-8.7c3.02-1.69,8.97-3.82,16.86-3.82,14.47,0,19.09,8.52,19.09,18.72v15.09c0,4.18.17,8.17.62,10.56h-12.16ZM338.88,103.21c-7.1-.09-12.6,1.6-12.6,6.84,0,3.46,2.31,5.15,5.32,5.15,3.38,0,6.13-2.22,7.01-4.97.18-.71.27-1.5.27-2.31v-4.7Z"/>
      <path class="st2" d="M413.2,122.65c-2.39,1.06-6.92,1.95-12.07,1.95-14.02,0-22.98-8.52-22.98-22.19,0-12.69,8.7-23.07,24.85-23.07,3.55,0,7.46.62,10.29,1.69l-2.13,10.02c-1.6-.71-3.99-1.33-7.54-1.33-7.11,0-11.72,5.06-11.63,12.16,0,7.98,5.32,12.16,11.89,12.16,3.2,0,5.68-.54,7.72-1.33l1.6,9.94Z"/>
      <path class="st2" d="M462.56,101.53c0,15.89-11.27,23.17-22.9,23.17-12.69,0-22.45-8.35-22.45-22.37s9.23-22.98,23.17-22.98,22.19,9.14,22.19,22.19ZM431.14,101.97c0,7.46,3.11,13.05,8.88,13.05,5.23,0,8.61-5.24,8.61-13.05,0-6.48-2.49-13.05-8.61-13.05-6.48,0-8.88,6.65-8.88,13.05Z"/>
      <path class="st2" d="M514.06,101.53c0,15.89-11.27,23.17-22.9,23.17-12.69,0-22.45-8.35-22.45-22.37s9.23-22.98,23.16-22.98,22.19,9.14,22.19,22.19ZM482.64,101.97c0,7.46,3.1,13.05,8.87,13.05,5.24,0,8.6-5.24,8.6-13.05,0-6.48-2.48-13.05-8.6-13.05-6.48,0-8.87,6.65-8.87,13.05Z"/>
      <path class="st2" d="M522.43,94.87c0-5.68-.18-10.56-.36-14.55h11.71l.63,6.04h.17c3.2-4.62,8.16-7.01,14.46-7.01,9.5,0,18.02,8.25,18.02,22.1,0,15.8-10.03,23.26-19.7,23.26-5.24,0-9.32-2.14-11.27-4.97h-.18v21.57h-13.48v-46.42ZM535.91,105.08c0,1.06.09,2.04.27,2.84.89,3.65,3.99,6.39,7.9,6.39,5.85,0,9.32-4.87,9.32-12.24,0-6.92-3.11-12.16-9.14-12.16-3.82,0-7.19,2.84-8.08,6.84-.18.71-.27,1.6-.27,2.4v5.94Z"/>
      <path class="st2" d="M586.18,106.32c.44,5.59,5.94,8.25,12.24,8.25,4.61,0,8.34-.62,11.98-1.77l1.78,9.14c-4.44,1.77-9.85,2.66-15.71,2.66-14.73,0-23.16-8.52-23.16-22.1,0-11.02,6.83-23.17,21.92-23.17,14.02,0,19.35,10.91,19.35,21.65,0,2.3-.27,4.35-.44,5.33h-27.95ZM602.06,97.1c0-3.28-1.42-8.79-7.63-8.79-5.68,0-7.98,5.15-8.33,8.79h15.97Z"/>
      <path class="st2" d="M622.68,94.61c0-6.39-.18-10.56-.36-14.29h11.63l.44,7.98h.36c2.22-6.3,7.54-8.96,11.71-8.96,1.25,0,1.87,0,2.84.17v12.7c-.97-.18-2.13-.36-3.64-.36-4.97,0-8.34,2.66-9.22,6.84-.18.89-.28,1.94-.28,3.01v22.01h-13.48v-29.11Z"/>
      <path class="st2" d="M680.11,123.72l-.8-4.35h-.26c-2.84,3.46-7.28,5.33-12.43,5.33-8.78,0-14.02-6.4-14.02-13.32,0-11.27,10.12-16.68,25.47-16.6v-.62c0-2.31-1.24-5.59-7.9-5.59-4.43,0-9.14,1.51-11.98,3.28l-2.49-8.7c3.01-1.69,8.97-3.82,16.86-3.82,14.47,0,19.08,8.52,19.08,18.72v15.09c0,4.18.19,8.17.62,10.56h-12.16ZM678.51,103.21c-7.1-.09-12.6,1.6-12.6,6.84,0,3.46,2.3,5.15,5.32,5.15,3.37,0,6.12-2.22,7.01-4.97.18-.71.27-1.5.27-2.31v-4.7Z"/>
      <path class="st2" d="M716.7,67.89v12.43h9.67v9.94h-9.67v15.71c0,5.23,1.24,7.63,5.32,7.63,1.69,0,3.02-.18,4-.35l.09,10.21c-1.77.7-4.97,1.15-8.79,1.15-4.35,0-7.99-1.51-10.12-3.73-2.48-2.58-3.72-6.75-3.72-12.87v-17.75h-5.77v-9.94h5.77v-9.41l13.22-3.02Z"/>
      <path class="st2" d="M748.13,68.25c0,3.73-2.84,6.74-7.28,6.74s-7.09-3.01-7.01-6.74c-.09-3.91,2.75-6.84,7.1-6.84s7.1,2.93,7.19,6.84ZM734.2,123.72v-43.39h13.49v43.39h-13.49Z"/>
      <path class="st2" d="M768.55,80.32l5.86,20.14c1.06,3.63,1.86,7.1,2.48,10.56h.27c.71-3.55,1.42-6.83,2.4-10.56l5.59-20.14h14.2l-16.15,43.39h-13.49l-15.8-43.39h14.65Z"/>
      <path class="st2" d="M829.63,123.72l-.8-4.35h-.27c-2.84,3.46-7.28,5.33-12.43,5.33-8.78,0-14.02-6.4-14.02-13.32,0-11.27,10.12-16.68,25.47-16.6v-.62c0-2.31-1.24-5.59-7.9-5.59-4.43,0-9.14,1.51-11.98,3.28l-2.48-8.7c3.02-1.69,8.96-3.82,16.86-3.82,14.46,0,19.08,8.52,19.08,18.72v15.09c0,4.18.18,8.17.62,10.56h-12.16ZM828.04,103.21c-7.09-.09-12.6,1.6-12.6,6.84,0,3.46,2.3,5.15,5.32,5.15,3.37,0,6.12-2.22,7.01-4.97.17-.71.26-1.5.26-2.31v-4.7Z"/>
    </g>
    <g>
      <path class="st2" d="M292.57,167.57c.06,4.76,2.81,6.72,6.03,6.72,2.29,0,3.7-.45,4.88-.99l.56,2.5c-1.12.56-3.08,1.23-5.88,1.23-5.41,0-8.67-3.96-8.67-9.77s3.15-10.45,8.29-10.45c5.74,0,7.24,5.54,7.24,9.11,0,.73-.04,1.27-.11,1.65h-12.35ZM301.95,165.04c.03-2.22-.82-5.7-4.42-5.7-3.27,0-4.66,3.25-4.92,5.7h9.33Z"/>
      <path class="st2" d="M309.01,162.48c0-2.02-.06-3.62-.15-5.23h2.79l.17,3.12h.09c.98-1.84,2.62-3.56,5.56-3.56,2.39,0,4.21,1.6,4.96,3.88h.07c.57-1.1,1.26-1.94,1.99-2.52,1.07-.88,2.21-1.36,3.88-1.36,2.35,0,5.81,1.67,5.81,8.4v11.4h-3.13v-10.95c0-3.75-1.26-5.97-3.82-5.97-1.83,0-3.24,1.47-3.81,3.17-.15.51-.26,1.14-.26,1.76v11.99h-3.12v-11.62c0-3.08-1.24-5.3-3.66-5.3-2,0-3.46,1.75-3.99,3.51-.15.52-.24,1.13-.24,1.73v11.67h-3.12v-14.13Z"/>
      <path class="st2" d="M339.37,163.56c0-2.47-.06-4.48-.15-6.3h2.86l.17,3.3h.07c1.28-2.36,3.39-3.74,6.25-3.74,4.27,0,7.48,3.95,7.48,9.82,0,6.98-3.88,10.42-8.01,10.42-2.36,0-4.38-1.13-5.43-3.05h-.08v10.53h-3.18v-20.98ZM342.55,168.74c0,.5.05.98.14,1.43.57,2.47,2.52,4.13,4.79,4.13,3.39,0,5.35-3.06,5.35-7.5,0-3.86-1.84-7.18-5.23-7.18-2.18,0-4.24,1.69-4.85,4.35-.1.45-.21.97-.21,1.43v3.35Z"/>
      <path class="st2" d="M360.08,163.28c0-2.29-.05-4.24-.15-6.03h2.81l.12,3.79h.12c.82-2.59,2.76-4.24,4.91-4.24.35,0,.6.03.89.1v3.31c-.33-.08-.65-.1-1.09-.1-2.26,0-3.86,1.87-4.29,4.51-.08.5-.13,1.07-.13,1.64v10.35h-3.19v-13.33Z"/>
      <path class="st2" d="M373.41,167.57c.06,4.76,2.81,6.72,6.03,6.72,2.29,0,3.7-.45,4.88-.99l.56,2.5c-1.12.56-3.08,1.23-5.88,1.23-5.41,0-8.67-3.96-8.67-9.77s3.15-10.45,8.29-10.45c5.74,0,7.24,5.54,7.24,9.11,0,.73-.04,1.27-.11,1.65h-12.35ZM382.78,165.04c.03-2.22-.82-5.7-4.42-5.7-3.27,0-4.66,3.25-4.92,5.7h9.33Z"/>
      <path class="st2" d="M389.4,173.03c.97.66,2.65,1.38,4.25,1.38,2.34,0,3.42-1.26,3.42-2.88,0-1.7-.93-2.58-3.27-3.55-3.18-1.27-4.69-3.17-4.68-5.49,0-3.12,2.3-5.68,6.09-5.68,1.8,0,3.33.53,4.31,1.19l-.79,2.56c-.68-.47-1.97-1.14-3.61-1.14-1.89,0-2.92,1.2-2.92,2.66,0,1.6,1.04,2.31,3.35,3.3,3.03,1.25,4.61,2.93,4.62,5.82,0,3.43-2.43,5.83-6.59,5.83-1.92,0-3.71-.55-4.94-1.35l.77-2.66Z"/>
      <path class="st2" d="M414.03,176.62l-.28-2.45h-.1c-.97,1.51-2.86,2.88-5.39,2.88-3.56,0-5.38-2.77-5.38-5.56,0-4.69,3.79-7.26,10.58-7.21v-.41c0-1.57-.4-4.49-4.01-4.47-1.64,0-3.35.54-4.58,1.45l-.73-2.34c1.46-1.04,3.59-1.7,5.81-1.7,5.38,0,6.7,4.05,6.7,7.92v7.24c0,1.65.06,3.3.26,4.64h-2.89ZM413.53,166.73c-3.46-.08-7.44.61-7.44,4.35,0,2.31,1.38,3.37,2.99,3.37,2.32,0,3.78-1.6,4.29-3.24.12-.37.15-.77.15-1.11v-3.37Z"/>
      <path class="st2" d="M431.32,167.57c.06,4.76,2.81,6.72,6.03,6.72,2.29,0,3.7-.45,4.88-.99l.56,2.5c-1.12.56-3.08,1.23-5.88,1.23-5.41,0-8.67-3.96-8.67-9.77s3.15-10.45,8.29-10.45c5.74,0,7.24,5.54,7.24,9.11,0,.73-.04,1.27-.11,1.65h-12.35ZM440.69,165.04c.03-2.22-.82-5.7-4.42-5.7-3.27,0-4.66,3.25-4.92,5.7h9.33Z"/>
      <path class="st2" d="M447.76,148.19h3.19v28.42h-3.19v-28.42Z"/>
      <path class="st2" d="M458.14,167.57c.06,4.76,2.81,6.72,6.03,6.72,2.29,0,3.7-.45,4.88-.99l.56,2.5c-1.12.56-3.08,1.23-5.88,1.23-5.41,0-8.67-3.96-8.67-9.77s3.15-10.45,8.29-10.45c5.74,0,7.24,5.54,7.24,9.11,0,.73-.04,1.27-.11,1.65h-12.35ZM467.51,165.04c.03-2.22-.82-5.7-4.42-5.7-3.27,0-4.66,3.25-4.92,5.7h9.33ZM468.26,148.86l-4.44,5.74h-2.27l3.2-5.74h3.51Z"/>
      <path class="st2" d="M487.14,175.91c-.84.46-2.68,1.12-5.05,1.12-5.3,0-8.79-3.97-8.79-9.89s3.71-10.33,9.46-10.33c1.89,0,3.59.53,4.45,1.03l-.71,2.7c-.79-.46-1.98-.93-3.75-.93-4.02,0-6.22,3.31-6.21,7.33,0,4.49,2.63,7.24,6.14,7.24,1.8,0,3.02-.5,3.92-.93l.54,2.64Z"/>
      <path class="st2" d="M495.2,151.68v5.58h4.6v2.67h-4.6v10.44c0,2.41.63,3.77,2.42,3.77.83,0,1.44-.11,1.85-.26l.15,2.68c-.62.27-1.62.48-2.86.48-1.47,0-2.7-.53-3.46-1.49-.88-1.07-1.24-2.77-1.24-5.05v-10.57h-2.73v-2.67h2.73v-4.67l3.14-.91Z"/>
      <path class="st2" d="M503.4,163.28c0-2.29-.05-4.24-.15-6.03h2.81l.12,3.79h.12c.82-2.59,2.76-4.24,4.91-4.24.34,0,.6.03.89.1v3.31c-.33-.08-.65-.1-1.09-.1-2.26,0-3.86,1.87-4.29,4.51-.08.5-.13,1.07-.13,1.64v10.35h-3.19v-13.33Z"/>
      <path class="st2" d="M519.04,151.78c0,1.2-.77,2.19-2.04,2.19-1.16,0-1.94-.99-1.93-2.19,0-1.21.82-2.19,1.99-2.19s1.97.96,1.98,2.19ZM515.46,176.62v-19.36h3.19v19.36h-3.19Z"/>
      <path class="st2" d="M536.53,175.91c-.84.46-2.68,1.12-5.05,1.12-5.3,0-8.79-3.97-8.79-9.89s3.71-10.33,9.46-10.33c1.89,0,3.59.53,4.45,1.03l-.71,2.7c-.79-.46-1.98-.93-3.75-.93-4.02,0-6.22,3.31-6.21,7.33,0,4.49,2.63,7.24,6.14,7.24,1.8,0,3.02-.5,3.92-.93l.54,2.64Z"/>
      <path class="st2" d="M550.07,176.62l-.28-2.45h-.1c-.97,1.51-2.86,2.88-5.39,2.88-3.56,0-5.38-2.77-5.38-5.56,0-4.69,3.79-7.26,10.58-7.21v-.41c0-1.57-.4-4.49-4.01-4.47-1.64,0-3.35.54-4.58,1.45l-.73-2.34c1.45-1.04,3.59-1.7,5.81-1.7,5.38,0,6.7,4.05,6.7,7.92v7.24c0,1.65.06,3.3.26,4.64h-2.89ZM549.58,166.73c-3.46-.08-7.44.61-7.44,4.35,0,2.31,1.38,3.37,2.99,3.37,2.32,0,3.78-1.6,4.29-3.24.12-.37.15-.77.15-1.11v-3.37Z"/>
      <path class="st2" d="M580.77,148.19v23.43c0,1.73.06,3.66.14,5h-2.85l-.16-3.35h-.08c-.98,2.16-3.1,3.79-5.97,3.79-4.27,0-7.56-3.97-7.56-9.84-.03-6.47,3.63-10.4,7.92-10.4,2.7,0,4.52,1.4,5.31,2.94h.07v-11.56h3.19ZM577.59,165.13c0-.46-.04-1.04-.14-1.51-.5-2.21-2.23-4.05-4.64-4.05-3.32,0-5.3,3.2-5.3,7.45,0,3.93,1.78,7.2,5.23,7.2,2.14,0,4.09-1.59,4.68-4.23.11-.46.15-.96.15-1.51v-3.35Z"/>
      <path class="st2" d="M587.89,167.57c.06,4.76,2.81,6.72,6.03,6.72,2.29,0,3.7-.45,4.88-.99l.56,2.5c-1.12.56-3.08,1.23-5.88,1.23-5.41,0-8.67-3.96-8.67-9.77s3.15-10.45,8.29-10.45c5.74,0,7.24,5.54,7.24,9.11,0,.73-.04,1.27-.11,1.65h-12.35ZM597.26,165.04c.03-2.22-.82-5.7-4.42-5.7-3.27,0-4.66,3.25-4.92,5.7h9.33Z"/>
      <path class="st2" d="M627.24,157.26c-.08,1.36-.15,2.94-.15,5.3v11.24c0,4.48-.83,7.17-2.51,8.86-1.73,1.74-4.2,2.32-6.42,2.32s-4.45-.55-5.88-1.6l.8-2.71c1.17.81,2.98,1.55,5.18,1.55,3.27,0,5.67-1.88,5.67-6.79v-2.16h-.07c-.97,1.82-2.88,3.26-5.6,3.26-4.39,0-7.51-4.11-7.51-9.47,0-6.57,3.88-10.27,7.95-10.27,3.06,0,4.71,1.73,5.49,3.34h.08l.13-2.9h2.83ZM623.91,164.87c0-.57-.05-1.1-.18-1.57-.59-2.05-2.14-3.75-4.5-3.75-3.05,0-5.24,2.84-5.24,7.34,0,3.79,1.78,6.97,5.21,6.97,1.98,0,3.77-1.38,4.45-3.63.17-.57.25-1.26.25-1.87v-3.5Z"/>
      <path class="st2" d="M648.34,166.75c0,7.17-4.53,10.31-8.76,10.31-4.77,0-8.47-3.82-8.47-9.97,0-6.48,3.88-10.27,8.75-10.27s8.48,4.04,8.48,9.93ZM634.37,166.97c0,4.25,2.21,7.45,5.34,7.45s5.36-3.15,5.36-7.55c0-3.28-1.5-7.42-5.3-7.42s-5.39,3.85-5.39,7.52Z"/>
      <path class="st2" d="M667.61,148.19v23.43c0,1.73.06,3.66.14,5h-2.85l-.16-3.35h-.08c-.98,2.16-3.1,3.79-5.97,3.79-4.27,0-7.56-3.97-7.56-9.84-.03-6.47,3.63-10.4,7.92-10.4,2.7,0,4.52,1.4,5.31,2.94h.07v-11.56h3.19ZM664.42,165.13c0-.46-.04-1.04-.14-1.51-.5-2.21-2.22-4.05-4.64-4.05-3.32,0-5.3,3.2-5.3,7.45,0,3.93,1.78,7.2,5.23,7.2,2.14,0,4.09-1.59,4.68-4.23.11-.46.15-.96.15-1.51v-3.35Z"/>
      <path class="st2" d="M688.88,166.75c0,7.17-4.53,10.31-8.76,10.31-4.77,0-8.47-3.82-8.47-9.97,0-6.48,3.88-10.27,8.75-10.27s8.48,4.04,8.48,9.93ZM674.92,166.97c0,4.25,2.21,7.45,5.34,7.45s5.36-3.15,5.36-7.55c0-3.28-1.5-7.42-5.3-7.42s-5.39,3.85-5.39,7.52Z"/>
      <path class="st2" d="M693.83,157.26l3.84,11.44c.42,1.28.84,2.8,1.13,3.95h.09c.32-1.14.7-2.63,1.13-4.03l3.48-11.36h3.4l-4.82,13.79c-2.28,6.66-3.85,10.04-6.03,12.14-1.58,1.51-3.14,2.11-3.93,2.26l-.79-2.94c.8-.28,1.84-.83,2.8-1.72.87-.77,1.94-2.13,2.68-3.92.16-.37.24-.63.24-.85,0-.2-.05-.48-.23-.91l-6.49-17.85h3.48Z"/>
      <path class="st2" d="M730.08,175.91c-.84.46-2.68,1.12-5.05,1.12-5.3,0-8.79-3.97-8.79-9.89s3.71-10.33,9.46-10.33c1.89,0,3.59.53,4.45,1.03l-.71,2.7c-.79-.46-1.98-.93-3.75-.93-4.02,0-6.22,3.31-6.21,7.33,0,4.49,2.63,7.24,6.14,7.24,1.8,0,3.02-.5,3.92-.93l.54,2.64Z"/>
      <path class="st2" d="M733.83,163.28c0-2.29-.05-4.24-.15-6.03h2.81l.12,3.79h.12c.82-2.59,2.76-4.24,4.91-4.24.34,0,.6.03.89.1v3.31c-.33-.08-.65-.1-1.09-.1-2.26,0-3.86,1.87-4.29,4.51-.08.5-.13,1.07-.13,1.64v10.35h-3.19v-13.33Z"/>
      <path class="st2" d="M760.38,171.32c0,2.03.06,3.77.15,5.3h-2.83l-.17-3.17h-.09c-.81,1.56-2.67,3.61-5.83,3.61-2.76,0-6.06-1.69-6.06-8.48v-11.31h3.19v10.69c0,3.69,1.05,6.2,3.94,6.2,2.14,0,3.64-1.65,4.24-3.23.17-.51.29-1.13.29-1.8v-11.86h3.19v14.06Z"/>
      <path class="st2" d="M763.71,174.56l7.96-11.38c.79-1.08,1.5-2,2.32-3.03v-.08h-9.57v-2.81h13.45l-.02,2.2-7.87,11.25c-.75,1.05-1.47,2.04-2.26,3.01v.08h10.29v2.81h-14.3v-2.05Z"/>
      <path class="st2" d="M789.01,148.19h3.19v28.42h-3.19v-28.42Z"/>
      <path class="st2" d="M801.44,151.68v5.58h4.6v2.67h-4.6v10.44c0,2.41.63,3.77,2.42,3.77.83,0,1.44-.11,1.85-.26l.15,2.68c-.62.27-1.62.48-2.86.48-1.47,0-2.7-.53-3.46-1.49-.88-1.07-1.24-2.77-1.24-5.05v-10.57h-2.73v-2.67h2.73v-4.67l3.14-.91Z"/>
      <path class="st2" d="M824.63,148.19v23.43c0,1.73.06,3.66.14,5h-2.85l-.16-3.35h-.08c-.98,2.16-3.1,3.79-5.97,3.79-4.27,0-7.56-3.97-7.56-9.84-.03-6.47,3.63-10.4,7.92-10.4,2.7,0,4.52,1.4,5.31,2.94h.07v-11.56h3.19ZM821.44,165.13c0-.46-.04-1.04-.14-1.51-.5-2.21-2.22-4.05-4.64-4.05-3.32,0-5.3,3.2-5.3,7.45,0,3.93,1.78,7.2,5.23,7.2,2.14,0,4.09-1.59,4.68-4.23.11-.46.15-.96.15-1.51v-3.35Z"/>
      <path class="st2" d="M839.72,176.62l-.28-2.45h-.1c-.97,1.51-2.86,2.88-5.39,2.88-3.56,0-5.38-2.77-5.38-5.56,0-4.69,3.79-7.26,10.58-7.21v-.41c0-1.57-.4-4.49-4.01-4.47-1.64,0-3.35.54-4.58,1.45l-.73-2.34c1.45-1.04,3.59-1.7,5.81-1.7,5.38,0,6.7,4.05,6.7,7.92v7.24c0,1.65.06,3.3.26,4.64h-2.89ZM839.22,166.73c-3.46-.08-7.44.61-7.44,4.35,0,2.31,1.38,3.37,2.99,3.37,2.32,0,3.78-1.6,4.29-3.24.12-.37.15-.77.15-1.11v-3.37Z"/>
      <path class="st2" d="M846.74,174.54c0-1.47.9-2.54,2.17-2.54s2.14,1.04,2.15,2.54c0,1.42-.86,2.51-2.17,2.51s-2.17-1.09-2.15-2.51Z"/>
    </g>
  </g>
</svg>